<?xml version="1.0" encoding="utf-8"?>
<!-- Generator: Adobe Illustrator 24.2.0, SVG Export Plug-In . SVG Version: 6.00 Build 0)  -->
<svg version="1.1" id="Layer_1" xmlns="http://www.w3.org/2000/svg" xmlns:xlink="http://www.w3.org/1999/xlink" x="0px" y="0px"
	 viewBox="0 0 26 26" style="enable-background:new 0 0 26 26;" xml:space="preserve">
<g>
	<path d="M12.4,19.9l-6.8-6.7l6.8-6.7c0.7-0.7,0.7-2,0-2.7c-0.8-0.7-2-0.7-2.7,0l-8.2,8.1c-0.7,0.7-0.7,2,0,2.7l8.2,8.1
		c0.8,0.7,2,0.7,2.7,0C13.2,21.9,13.2,20.7,12.4,19.9z"/>
	<path d="M13.5,11.8c-0.7,0.7-0.7,2,0,2.7l8.2,8.1c0.8,0.7,2,0.7,2.7,0c0.7-0.7,0.7-2,0-2.7l-6.8-6.7l6.8-6.7c0.7-0.7,0.7-2,0-2.7
		c-0.8-0.7-2-0.7-2.7,0L13.5,11.8z"/>
</g>
</svg>
