<?xml version="1.0" encoding="utf-8"?>
<!-- Generator: Adobe Illustrator 24.2.0, SVG Export Plug-In . SVG Version: 6.00 Build 0)  -->
<svg version="1.1" id="Layer_1" xmlns="http://www.w3.org/2000/svg" xmlns:xlink="http://www.w3.org/1999/xlink" x="0px" y="0px"
	 viewBox="0 0 26 26" style="enable-background:new 0 0 26 26;" xml:space="preserve">
<g>
	<path d="M13.5,6.4l6.8,6.7l-6.8,6.7c-0.7,0.7-0.7,2,0,2.7c0.8,0.7,2,0.7,2.7,0l8.2-8.1c0.7-0.7,0.7-2,0-2.7l-8.2-8.1
		c-0.8-0.7-2-0.7-2.7,0C12.8,4.5,12.8,5.7,13.5,6.4z"/>
	<path d="M12.4,14.5c0.7-0.7,0.7-2,0-2.7L4.3,3.7C3.5,3,2.3,3,1.5,3.7c-0.7,0.7-0.7,2,0,2.7l6.8,6.7l-6.8,6.7c-0.7,0.7-0.7,2,0,2.7
		c0.8,0.7,2,0.7,2.7,0L12.4,14.5z"/>
</g>
</svg>
